<?xml version="1.0" standalone="no"?>
<!DOCTYPE svg PUBLIC "-//W3C//DTD SVG 20010904//EN"
 "http://www.w3.org/TR/2001/REC-SVG-20010904/DTD/svg10.dtd">
<svg version="1.0" xmlns="http://www.w3.org/2000/svg"
 width="2048.000000pt" height="800.000000pt" viewBox="0 180 512.000000 152.000000"
 preserveAspectRatio="xMidYMid meet">
<metadata>
Created by potrace 1.16, written by Peter Selinger 2001-2019
</metadata>
<g transform="translate(0.000000,512.000000) scale(0.100000,-0.100000)"
fill="#44546B" stroke="none">
<path d="M2615 3090 c-147 -22 -194 -33 -213 -51 -22 -20 -37 -90 -30 -140 4
-27 2 -30 -16 -24 -52 16 -125 17 -180 1 -54 -16 -61 -16 -102 0 -34 13 -59
15 -112 10 -37 -4 -78 -7 -92 -7 -14 0 -51 0 -83 0 -31 1 -87 -3 -124 -9 -44
-6 -73 -6 -85 1 -12 6 -80 10 -161 9 -78 -1 -211 -1 -294 -1 l-153 1 0 54 c0
61 -21 96 -69 116 -26 10 -42 8 -130 -19 -107 -34 -113 -38 -135 -114 -10 -34
-18 -43 -45 -51 -54 -15 -62 -38 -59 -166 l3 -113 30 -17 c30 -17 30 -17 35
-126 4 -97 8 -114 33 -157 71 -120 220 -157 397 -97 l60 20 43 -22 c36 -20 54
-22 132 -19 109 4 1386 3 1505 -1 75 -3 92 0 142 24 l57 26 63 -26 c52 -22 79
-26 158 -27 67 0 107 5 136 17 27 11 45 13 55 7 8 -5 95 -9 194 -9 228 0 298
-7 290 -28 -3 -9 -9 -35 -12 -59 -5 -39 -3 -45 29 -77 96 -96 300 -84 409 25
53 53 121 197 209 437 18 50 31 69 60 87 53 34 64 68 56 177 -5 76 -10 96 -28
116 -22 23 -26 23 -183 22 -88 -1 -276 -1 -417 -1 l-258 1 0 75 c0 68 -2 77
-29 107 -26 29 -35 33 -78 32 -26 0 -95 -9 -153 -19 -135 -24 -150 -37 -150
-130 l0 -65 -68 6 c-78 7 -157 -11 -214 -50 l-35 -24 -43 29 c-45 31 -98 49
-141 49 -26 0 -27 2 -31 76 -3 71 -6 78 -36 105 -34 30 -48 32 -137 19z m73
-213 c1 -64 4 -117 6 -117 2 0 20 7 39 15 159 66 286 -90 248 -305 -31 -174
-167 -256 -306 -185 -48 24 -49 24 -63 4 -10 -14 -23 -19 -45 -17 l-32 3 -3
285 -2 285 -30 17 c-26 15 -30 23 -30 58 0 26 5 43 15 46 19 8 178 32 190 29
6 -1 11 -51 13 -118z m944 -94 l3 -206 51 52 c50 51 51 53 46 102 l-5 50 104
-3 104 -3 0 -45 c0 -38 -4 -47 -25 -57 -14 -6 -49 -36 -78 -65 l-52 -54 61
-82 c43 -58 67 -82 83 -82 11 0 26 -4 32 -8 16 -10 25 -58 18 -87 -6 -24 -9
-25 -83 -25 -91 0 -90 -1 -192 148 l-64 94 -3 -57 c-3 -49 0 -60 18 -72 17
-12 20 -23 18 -61 l-3 -47 -117 -3 -118 -3 0 55 c0 51 2 56 25 62 l25 6 0 228
0 228 -30 12 c-29 12 -31 16 -28 59 l3 46 65 11 c36 7 82 12 102 13 l38 1 2
-207z m-2772 82 l0 -85 65 0 65 0 0 -60 0 -60 -65 0 -65 0 0 -120 c0 -117 1
-120 25 -136 21 -13 33 -14 66 -6 44 11 48 7 62 -65 6 -29 3 -35 -26 -50 -49
-26 -176 -25 -213 3 -64 47 -69 62 -72 225 l-3 149 -35 0 -35 0 3 57 c3 54 4
57 34 65 42 11 54 27 62 83 7 45 9 47 57 65 78 27 75 30 75 -65z m980 -110 c4
-21 8 -26 14 -16 14 21 88 51 129 51 41 0 70 -11 103 -42 22 -20 22 -19 62 7
83 55 195 41 245 -29 20 -28 22 -45 25 -183 l4 -153 24 0 c23 0 24 -3 24 -60
l0 -61 -122 3 -123 3 -3 42 c-2 33 2 46 17 60 19 16 21 29 21 135 0 133 -9
155 -63 144 -54 -11 -57 -18 -57 -147 0 -110 1 -118 20 -124 18 -6 21 -14 18
-58 l-3 -52 -117 -3 -118 -3 0 55 c0 45 3 54 20 59 19 5 20 14 20 126 0 118
-1 121 -25 137 -23 15 -30 15 -63 2 l-37 -14 -3 -121 c-2 -112 -1 -121 17
-126 14 -3 21 -17 26 -50 4 -25 4 -50 0 -56 -4 -7 -53 -11 -131 -11 l-124 0 0
54 c0 51 2 55 30 65 l30 10 0 125 0 125 -30 16 c-26 13 -30 21 -30 55 0 44 -2
43 100 59 82 13 94 11 100 -24z m1465 24 c64 -16 77 -35 73 -105 l-3 -59 -43
-3 c-44 -3 -45 -3 -56 51 -6 24 -11 27 -46 27 -29 0 -42 -5 -50 -20 -9 -17 -6
-25 19 -50 16 -17 37 -30 46 -30 31 0 115 -53 135 -85 47 -77 12 -178 -77
-222 -47 -22 -63 -25 -122 -21 -38 3 -86 14 -107 24 l-39 19 0 70 0 70 42 3
c39 3 43 1 49 -25 4 -15 11 -34 17 -40 14 -19 92 -16 108 3 20 25 0 45 -77 76
-112 47 -153 103 -139 194 7 51 58 108 109 123 44 13 110 13 161 0z m-2055
-182 c5 -164 7 -180 25 -193 22 -16 56 -12 93 12 21 14 22 21 22 129 0 114 0
116 -25 125 -22 8 -25 15 -25 60 l0 50 100 0 100 0 2 -192 3 -192 25 -6 c23
-5 25 -11 25 -60 l0 -55 -87 -3 c-87 -3 -87 -3 -94 23 -6 24 -8 25 -28 11 -67
-49 -142 -59 -205 -27 -68 35 -75 57 -81 226 l-5 150 -27 13 c-24 11 -28 19
-28 56 0 23 3 46 7 50 4 4 50 5 103 4 l95 -3 5 -178z m2968 130 c3 -42 0 -49
-17 -54 -12 -3 -21 -8 -21 -12 0 -3 16 -50 37 -104 l37 -98 37 103 c35 99 36
103 17 110 -16 7 -19 16 -16 55 l3 48 113 3 112 3 0 -56 c0 -48 -2 -55 -20
-55 -27 0 -37 -19 -126 -240 -113 -283 -155 -346 -246 -371 -62 -16 -178 6
-178 35 0 6 11 35 25 65 20 43 28 52 43 45 9 -4 34 -9 55 -12 42 -5 68 12 93
60 14 26 10 37 -72 222 -70 159 -90 195 -107 198 -25 3 -32 25 -22 74 l6 35
122 -3 122 -3 3 -48z"/>
<path d="M2708 2646 c-15 -11 -18 -30 -18 -130 0 -115 0 -117 25 -126 33 -13
69 2 92 37 25 38 25 168 0 206 -20 30 -68 37 -99 13z"/>
</g>
<g transform="translate(0.000000,512.000000) scale(0.100000,-0.100000)"
fill="#FFFFFF" stroke="none">
<path d="M2582 2985 c-112 -18 -112 -18 -112 -65 0 -35 4 -43 30 -58 l30 -17
2 -285 3 -285 32 -3 c22 -2 35 3 45 17 14 20 15 20 63 -4 139 -71 275 11 306
185 38 215 -89 371 -248 305 -19 -8 -37 -15 -39 -15 -2 0 -5 53 -6 117 -2 67
-7 117 -13 118 -5 2 -47 -3 -93 -10z m225 -352 c25 -38 25 -168 0 -206 -23
-35 -59 -50 -92 -37 -25 9 -25 11 -25 126 0 130 6 143 67 144 25 0 37 -7 50
-27z"/>
<path d="M3490 2976 l-65 -11 -3 -46 c-3 -43 -1 -47 28 -59 l30 -12 0 -228 0
-228 -25 -6 c-23 -6 -25 -11 -25 -62 l0 -55 118 3 117 3 3 47 c2 38 -1 49 -18
61 -18 12 -21 23 -18 72 l3 57 64 -94 c102 -149 101 -148 192 -148 74 0 77 1
83 25 7 29 -2 77 -18 87 -6 4 -21 8 -32 8 -16 0 -40 24 -83 82 l-61 82 52 54
c29 29 64 59 78 65 21 10 25 19 25 57 l0 45 -104 3 -104 3 5 -50 c5 -49 4 -51
-46 -102 l-51 -52 -3 206 -2 207 -38 -1 c-20 -1 -66 -6 -102 -13z"/>
<path d="M785 2930 c-48 -18 -50 -20 -57 -65 -8 -56 -20 -72 -62 -83 -30 -8
-31 -11 -34 -65 l-3 -57 35 0 35 0 3 -149 c3 -163 8 -178 72 -225 37 -28 164
-29 213 -3 29 15 32 21 26 50 -14 72 -18 76 -62 65 -33 -8 -45 -7 -66 6 -24
16 -25 19 -25 136 l0 120 65 0 65 0 0 60 0 60 -65 0 -65 0 0 85 c0 95 3 92
-75 65z"/>
<path d="M1740 2779 c-102 -16 -100 -15 -100 -59 0 -34 4 -42 30 -55 l30 -16
0 -125 0 -125 -30 -10 c-28 -10 -30 -14 -30 -65 l0 -54 124 0 c78 0 127 4 131
11 4 6 4 31 0 56 -5 33 -12 47 -26 50 -18 5 -19 14 -17 126 l3 121 37 14 c33
13 40 13 63 -2 24 -16 25 -19 25 -137 0 -112 -1 -121 -20 -126 -17 -5 -20 -14
-20 -59 l0 -55 118 3 117 3 3 52 c3 44 0 52 -18 58 -19 6 -20 14 -20 124 0
129 3 136 57 147 54 11 63 -11 63 -144 0 -106 -2 -119 -21 -135 -15 -14 -19
-27 -17 -60 l3 -42 123 -3 122 -3 0 61 c0 57 -1 60 -24 60 l-24 0 -4 153 c-3
138 -5 155 -25 183 -50 70 -162 84 -245 29 -40 -26 -40 -27 -62 -7 -33 31 -62
42 -103 42 -41 0 -115 -30 -129 -51 -6 -10 -10 -5 -14 16 -6 35 -18 37 -100
24z"/>
<path d="M3144 2779 c-51 -15 -102 -72 -109 -123 -14 -91 27 -147 139 -194 77
-31 97 -51 77 -76 -16 -19 -94 -22 -108 -3 -6 6 -13 25 -17 40 -6 26 -10 28
-49 25 l-42 -3 0 -70 0 -70 39 -19 c21 -10 69 -21 107 -24 59 -4 75 -1 122 21
89 44 124 145 77 222 -20 32 -104 85 -135 85 -9 0 -30 13 -46 30 -25 25 -28
33 -19 50 8 15 21 20 50 20 35 0 40 -3 46 -27 11 -54 12 -54 56 -51 l43 3 3
59 c2 43 -1 63 -13 76 -31 34 -149 50 -221 29z"/>
<path d="M1047 2774 c-4 -4 -7 -27 -7 -50 0 -37 4 -45 28 -56 l27 -13 5 -150
c6 -169 13 -191 81 -226 63 -32 138 -22 205 27 20 14 22 13 28 -11 7 -26 7
-26 94 -23 l87 3 0 55 c0 49 -2 55 -25 60 l-25 6 -3 192 -2 192 -100 0 -100 0
0 -50 c0 -45 3 -52 25 -60 25 -9 25 -11 25 -125 0 -108 -1 -115 -22 -129 -37
-24 -71 -28 -93 -12 -18 13 -20 29 -25 193 l-5 178 -95 3 c-53 1 -99 0 -103
-4z"/>
<path d="M3965 2746 c-10 -49 -3 -71 22 -74 17 -3 37 -39 107 -198 82 -185 86
-196 72 -222 -25 -48 -51 -65 -93 -60 -21 3 -46 8 -55 12 -15 7 -23 -2 -43
-45 -14 -30 -25 -59 -25 -65 0 -29 116 -51 178 -35 91 25 133 88 246 371 89
221 99 240 126 240 18 0 20 7 20 55 l0 56 -112 -3 -113 -3 -3 -48 c-3 -39 0
-48 16 -55 19 -7 18 -11 -17 -110 l-37 -103 -37 98 c-21 54 -37 101 -37 104 0
4 9 9 21 12 17 5 20 12 17 54 l-3 48 -122 3 -122 3 -6 -35z"/>
</g>
</svg>
